<?xml version="1.0" standalone="no"?>
<!DOCTYPE svg PUBLIC "-//W3C//DTD SVG 20010904//EN"
 "http://www.w3.org/TR/2001/REC-SVG-20010904/DTD/svg10.dtd">
<svg version="1.0" xmlns="http://www.w3.org/2000/svg"
 width="500.000000pt" height="500.000000pt" viewBox="0 0 500.000000 500.000000"
 preserveAspectRatio="xMidYMid meet">

<g transform="translate(0.000000,500.000000) scale(0.100000,-0.100000)"
fill="#000000" stroke="none">
<path d="M0 2500 l0 -2500 2500 0 2500 0 0 2500 0 2500 -2500 0 -2500 0 0
-2500z m1865 190 l0 -45 -92 -3 -93 -3 -2 -187 -3 -187 -46 -3 -46 -3 -6 83
c-4 46 -7 131 -7 191 l0 107 -90 0 -90 0 0 50 0 50 238 -2 237 -3 0 -45z m492
26 l28 -24 3 -216 3 -216 -50 0 -51 0 -2 188 -3 187 -42 3 -43 3 0 -190 0
-191 -50 0 -50 0 -2 188 -3 187 -42 3 -43 3 0 -190 0 -191 -50 0 -50 0 0 211
0 211 29 29 29 29 181 0 c176 0 181 -1 208 -24z m704 -42 c11 -13 9 -44 -10
-182 -24 -172 -34 -211 -54 -224 -7 -4 -96 -8 -199 -8 -156 0 -189 3 -202 16
-20 19 -20 15 4 192 22 159 34 208 53 216 7 2 98 5 203 5 163 1 193 -1 205
-15z m173 -40 c-3 -31 -7 -63 -8 -72 -1 -15 11 -17 89 -17 l89 0 12 57 c15 78
25 88 90 88 53 0 53 0 48 -27 -2 -16 -15 -104 -29 -198 -27 -194 -34 -205
-111 -205 -49 0 -49 -1 -35 98 l7 52 -132 0 c-113 0 -135 3 -154 18 l-23 18
16 109 c18 125 25 135 100 135 l48 0 -7 -56z m506 39 c0 -31 -41 -317 -51
-355 -11 -44 -33 -58 -88 -58 -50 0 -50 -10 -16 221 29 200 34 209 107 209 39
0 48 -3 48 -17z"/>
<path d="M2754 2562 c-6 -4 -14 -34 -18 -67 -4 -33 -10 -70 -13 -82 -5 -23 -4
-23 90 -23 l94 0 11 82 c6 45 8 86 6 90 -6 10 -155 10 -170 0z"/>
</g>
</svg>
